<svg width="32" height="32" viewBox="0 0 32 32" fill="none" xmlns="http://www.w3.org/2000/svg">
  <rect width="32" height="32" rx="8" fill="#10B981"/>
  <path d="M7 7H14V14H7V7ZM9 9V12H12V9H9Z" fill="white"/>
  <path d="M18 7H25V14H18V7ZM20 9V12H23V9H20Z" fill="white"/>
  <path d="M7 18H14V25H7V18ZM9 20V23H12V20H9Z" fill="white"/>
  <rect x="18" y="18" width="3" height="3" fill="white"/>
  <rect x="22" y="22" width="3" height="3" fill="white"/>
  <rect x="18" y="22" width="3" height="3" fill="white"/>
  <rect x="22" y="18" width="3" height="3" fill="white"/>
  <circle cx="26" cy="26" r="5" fill="#059669" stroke="white" stroke-width="1.5"/>
  <path d="M24 26L25.5 27.5L28.5 24.5" stroke="white" stroke-width="1.5" stroke-linecap="round" stroke-linejoin="round"/>
</svg>
